<svg id="Group_22" data-name="Group 22" xmlns="http://www.w3.org/2000/svg" xmlns:xlink="http://www.w3.org/1999/xlink" width="30" height="40" viewBox="0 0 30 40">
  <defs>
    <linearGradient id="linear-gradient" y1="0.5" x2="7.217" y2="0.5" gradientUnits="objectBoundingBox">
      <stop offset="0" stop-color="#49c9ff"/>
      <stop offset="1" stop-color="#002d80"/>
    </linearGradient>
    <linearGradient id="linear-gradient-2" x1="-4.592" y1="0.5" x2="17.296" y2="0.5" xlink:href="#linear-gradient"/>
    <linearGradient id="linear-gradient-3" x1="-1.847" y1="0.5" x2="3.95" y2="0.5" xlink:href="#linear-gradient"/>
    <linearGradient id="linear-gradient-4" x1="-5.603" y1="0.5" x2="4.385" y2="0.5" xlink:href="#linear-gradient"/>
    <linearGradient id="linear-gradient-5" x1="-6.241" y1="0.5" x2="2.322" y2="0.5" xlink:href="#linear-gradient"/>
    <linearGradient id="linear-gradient-6" x1="-9.744" y1="0.5" x2="1" y2="0.5" xlink:href="#linear-gradient"/>
    <linearGradient id="linear-gradient-7" x1="0" y1="0.5" x2="1" y2="0.5" xlink:href="#linear-gradient"/>
  </defs>
  <g id="Group_21" data-name="Group 21" transform="translate(0 33.558)">
    <path id="Path_27" data-name="Path 27" d="M46.424,127.086h1.1l1.5,4.666h-.976l-.327-1.2H46.2l-.327,1.2h-.945Zm-.019,2.746h1.108l-.139-.51c-.145-.485-.271-1.02-.4-1.524H46.94c-.119.51-.258,1.039-.4,1.524Z" transform="translate(-44.932 -126.727)" fill="url(#linear-gradient)"/>
    <path id="Path_28" data-name="Path 28" d="M61.59,130.156V126.12h.926v4.074c0,.214.094.283.182.283a.523.523,0,0,0,.126-.013l.113.686a1.237,1.237,0,0,1-.479.082C61.817,131.233,61.59,130.811,61.59,130.156Z" transform="translate(-55.291 -126.12)" fill="url(#linear-gradient-2)"/>
    <path id="Path_29" data-name="Path 29" d="M70.229,130.155h.926l.384,1.738c.069.346.113.68.176,1.033h.025c.069-.352.132-.693.221-1.033l.428-1.738h.819l.441,1.738c.082.346.145.68.22,1.033H73.9c.063-.352.113-.686.176-1.033l.384-1.738h.856l-.869,3.526H73.359l-.371-1.536c-.075-.334-.132-.655-.2-1.027h-.031c-.069.372-.12.7-.2,1.027l-.359,1.536H71.142Z" transform="translate(-60.638 -128.656)" fill="url(#linear-gradient-3)"/>
    <path id="Path_30" data-name="Path 30" d="M89.475,132.574c0-.755.611-1.152,2.034-1.3-.019-.346-.17-.611-.6-.611a1.994,1.994,0,0,0-.97.334l-.334-.611a2.818,2.818,0,0,1,1.473-.466c.894,0,1.354.536,1.354,1.556v2.059h-.756l-.063-.378h-.025a1.656,1.656,0,0,1-1.064.466A1,1,0,0,1,89.475,132.574Zm2.034-.025v-.712c-.863.107-1.152.346-1.152.661,0,.277.2.4.466.4A.958.958,0,0,0,91.509,132.549Z" transform="translate(-72.615 -128.507)" fill="url(#linear-gradient-4)"/>
    <path id="Path_31" data-name="Path 31" d="M103.04,135.029l.17-.712a.945.945,0,0,0,.246.044.675.675,0,0,0,.661-.535l.063-.208-1.372-3.463h.932l.56,1.637c.107.315.2.655.3,1h.032c.082-.328.17-.667.252-1l.485-1.637h.888L105,133.788c-.309.831-.686,1.31-1.473,1.31A1.489,1.489,0,0,1,103.04,135.029Z" transform="translate(-80.893 -128.656)" fill="url(#linear-gradient-5)"/>
    <path id="Path_32" data-name="Path 32" d="M116.947,133.122l.422-.579a1.53,1.53,0,0,0,.945.384c.352,0,.51-.151.51-.371,0-.265-.365-.384-.737-.529-.447-.17-.945-.441-.945-1.033,0-.63.51-1.077,1.316-1.077a1.955,1.955,0,0,1,1.2.435l-.416.56a1.311,1.311,0,0,0-.756-.3c-.321,0-.472.139-.472.34,0,.259.328.353.7.491.466.176.982.409.982,1.064,0,.617-.485,1.114-1.4,1.114A2.236,2.236,0,0,1,116.947,133.122Z" transform="translate(-89.692 -128.507)" fill="url(#linear-gradient-6)"/>
  </g>
  <path id="Path_33" data-name="Path 33" d="M64.739,40.352c-.094-.009-.188-.02-.283-.027l0,.006c-.275-.017-.552-.029-.832-.029s-.555.012-.83.029l.83-1.65h1.884l-1.277-2.54a.682.682,0,0,0-1.213,0l-2.255,4.477A12.745,12.745,0,0,0,50.7,52.968a12.476,12.476,0,0,0,.4,3.142l1.3-2.593c-.011-.182-.015-.364-.015-.55a11.042,11.042,0,0,1,7.358-10.333l-4.04,8.024-.906,1.8L52.053,57.93l.019.009-.173.344a12.957,12.957,0,0,0,11.729,7.354,12.658,12.658,0,0,0,1.111-25.286ZM74.861,52.968a10.782,10.782,0,0,1-.508,3.276L67.5,42.635A11.042,11.042,0,0,1,74.861,52.968ZM63.628,63.981a11.27,11.27,0,0,1-9.847-5.736l1.327-2.636,2.018-.287,10.394-1.481-.788-1.561-8.7,1.239-2.018.286.821-1.632.907-1.8,4.17-8.284a11.536,11.536,0,0,1,3.429,0l8.136,16.167A11.276,11.276,0,0,1,63.628,63.981Z" transform="translate(-48.561 -35.771)" fill="url(#linear-gradient-7)"/>
</svg>
