<?xml version="1.0" encoding="UTF-8"?><svg id="_レイヤー_2" xmlns="http://www.w3.org/2000/svg" viewBox="0 0 267.69 107.69"><defs><style>.cls-1{fill:#fff;stroke-width:0px;}</style></defs><g id="design"><path class="cls-1" d="m111.66,35.17c.9,2.32,2.51,4.05,5.02,4.83-.37.34-.85.97-1.07,1.39-2.29-.85-3.81-2.44-4.83-4.65-.68,1.73-2.14,3.42-5.24,4.71-.22-.34-.71-.93-1.1-1.22,3.68-1.37,4.8-3.29,5.12-5.07h-4.51v-1.49h4.65v-2.56h-4.07v-1.51h9.98v1.51h-4.29v2.56h4.9v1.49h-4.56Zm-4.14-9.14c.71.86,1.44,2.02,1.76,2.83l-1.39.75c-.27-.81-1-2.03-1.68-2.93l1.31-.64Zm7.65.39c-.63,1.08-1.37,2.31-1.95,3.07l-1.32-.53c.58-.83,1.27-2.15,1.61-3.12l1.66.58Z"/><path class="cls-1" d="m136.1,34.02h-6.51v5.24c0,1.05-.27,1.53-.97,1.78-.7.27-1.86.31-3.56.31-.08-.47-.39-1.22-.66-1.66,1.34.05,2.63.03,3.02.02.36,0,.51-.1.51-.46v-5.22h-6.83v-1.56h6.83v-3.9h-5.68v-1.56h12.7v1.56h-5.36v3.9h6.51v1.56Z"/><path class="cls-1" d="m154.38,33.5c-.76,1.41-1.73,2.7-2.86,3.85.56,1.58,1.22,2.53,1.92,2.53.41,0,.61-.83.69-2.93.36.37.9.75,1.32.88-.27,2.88-.8,3.66-2.17,3.66-1.29,0-2.29-1.12-3.03-2.93-1.05.9-2.17,1.66-3.36,2.29-.25-.39-.68-.92-1.08-1.27,1.39-.64,2.71-1.54,3.92-2.59-.41-1.37-.69-3-.9-4.75h-3.75v2.37l2.83-.56.12,1.41c-.97.22-1.97.46-2.95.66v3.37c0,.93-.22,1.39-.81,1.64-.59.25-1.54.31-2.9.31-.08-.44-.36-1.17-.59-1.59,1.03.03,2.02.03,2.31.02.31-.02.41-.1.41-.37v-3.02c-1.2.25-2.31.49-3.27.69l-.44-1.58c1-.17,2.31-.41,3.71-.68v-2.68h-3.42v-1.49h3.42v-2.34c-1,.17-2,.31-2.92.42-.08-.36-.29-.97-.49-1.31,2.36-.36,5.05-.9,6.7-1.47l1.1,1.32c-.83.27-1.8.51-2.8.71v2.66h3.59c-.14-1.53-.2-3.12-.22-4.73h1.63c-.02,1.63.05,3.24.19,4.73h4.81v1.49h-4.64c.17,1.27.37,2.41.61,3.44.76-.86,1.44-1.8,1.93-2.76l1.41.59Zm-.88-3.51c-.47-.8-1.58-2.02-2.53-2.86l1.19-.81c.95.81,2.08,1.97,2.61,2.76l-1.27.92Z"/><path class="cls-1" d="m163.34,26.36c-.37,1.2-.8,2.44-1.32,3.63v11.43h-1.49v-8.51c-.31.53-.61.98-.95,1.41-.14-.39-.54-1.27-.81-1.68,1.31-1.66,2.42-4.19,3.1-6.68l1.47.41Zm.44,3.02h1.54v12.04h-1.54v-12.04Zm1.93-3.51c.73.97,1.63,2.34,2.03,3.19l-1.29.78c-.37-.86-1.24-2.27-1.97-3.29l1.22-.68Zm8.09,13.7c0,.85-.19,1.29-.75,1.53-.54.25-1.42.29-2.75.29-.05-.41-.29-1.08-.49-1.47.88.05,1.8.03,2.05.02.29,0,.37-.1.37-.37v-11.68h-4.34v-1.42h5.9v13.12Z"/><path class="cls-1" d="m192.97,28.48s0,.54-.02.75c-.24,7.65-.44,10.27-1.12,11.12-.42.56-.83.71-1.47.8-.59.07-1.59.05-2.56,0-.03-.42-.22-1.08-.51-1.53,1.08.08,2.07.1,2.49.1.34,0,.53-.05.71-.29.54-.56.76-3.12.98-9.51h-4c-.48,1.08-1,2.07-1.54,2.85-.25-.24-.85-.66-1.24-.88v7.78h-4.59v1.29h-1.44v-12.39h1.9c.24-.81.49-1.93.59-2.75l1.71.29c-.29.85-.61,1.75-.88,2.46h2.71v3.2c1.12-1.46,2.02-3.71,2.53-5.95l1.53.36c-.2.78-.42,1.56-.69,2.31h4.92Zm-12.87,1.46v3.22h3.15v-3.22h-3.15Zm3.15,8.34v-3.75h-3.15v3.75h3.15Zm5.65-1.32c-.47-1.03-1.58-2.7-2.48-3.92l1.24-.7c.9,1.17,2.05,2.78,2.56,3.78l-1.32.83Z"/><path class="cls-1" d="m117.44,54.48v8.1h-1.64v-.92h-4.41v5.39h-1.64v-5.39h-4.39v1h-1.58v-8.19h5.97v-2.95h1.64v2.95h6.05Zm-7.7,5.65v-4.1h-4.39v4.1h4.39Zm6.05,0v-4.1h-4.41v4.1h4.41Z"/><path class="cls-1" d="m134.33,52.6v14.22h-1.68v-1.03h-7.98v1.1h-1.61v-14.29h11.27Zm-9.66,1.59v4.14h7.98v-4.14h-7.98Zm7.98,10v-4.31h-7.98v4.31h7.98Z"/><path class="cls-1" d="m151.97,55.82c-.97,2.66-2.25,4.81-3.92,6.54,1.78,1.48,4,2.54,6.66,3.15-.37.37-.88,1.1-1.14,1.56-2.78-.73-5.02-1.9-6.85-3.49-1.85,1.54-4.07,2.68-6.73,3.53-.17-.41-.68-1.15-1-1.54,2.61-.71,4.78-1.75,6.53-3.15-1.64-1.8-2.88-4-3.81-6.59h-2.46v-1.53h6.76v-2.78h1.61v2.78h6.87v1.53h-2.53Zm-8.53,0c.78,2.08,1.9,3.92,3.37,5.42,1.42-1.46,2.51-3.25,3.31-5.42h-6.68Z"/><path class="cls-1" d="m164.4,64.84c-.34-.71-.8-1.56-1.39-2.46-.97,1.98-2.17,3.53-3.61,4.7-.25-.41-.75-.98-1.14-1.27,1.48-1.08,2.75-2.8,3.7-4.98-.97-1.41-2.09-2.85-3.14-4.07l1.17-.92c.86.98,1.78,2.1,2.65,3.22.47-1.44.85-3.05,1.07-4.76h-4.92v-1.51h5.34l.27-.05,1,.29c-.27,2.92-.83,5.44-1.63,7.58.81,1.15,1.49,2.25,1.95,3.15l-1.32,1.08Zm8.88-11.82c-.44,3.93-1.42,7-2.88,9.36.9,1.46,2.05,2.61,3.51,3.37-.39.31-.88.92-1.14,1.36-1.37-.83-2.49-1.95-3.39-3.29-1.08,1.36-2.39,2.42-3.87,3.24-.24-.42-.7-1.07-1.05-1.39,1.56-.75,2.92-1.88,4.05-3.42-1.07-2.19-1.75-4.87-2.22-7.9l.32-.05h-.59v-1.51h5.95l.27-.05,1.03.29Zm-5.49,1.27c.36,2.36.9,4.54,1.71,6.37.97-1.76,1.66-3.9,2.05-6.37h-3.76Z"/><path class="cls-1" d="m182.54,62.65c.05.41.25,1.03.39,1.34-2.85,2-3.34,2.36-3.59,2.7-.14-.39-.54-1.07-.8-1.37.27-.2.66-.66.66-1.37v-5.71h-2.17v-1.51h3.64v7.15l1.86-1.22Zm-2.14-7.15c-.53-.71-1.66-1.85-2.58-2.64l1.02-.97c.9.75,2.08,1.83,2.63,2.53l-1.07,1.08Zm12.07,2.93v1.42h-10.8v-1.42h2.75c.15-.59.32-1.27.47-1.97h-2.07v-1.36h2.37c.1-.54.2-1.1.31-1.61h-3.25v-1.39h9.65v1.39h-4.8c-.1.51-.2,1.07-.32,1.61h2.71l.25-.07,1.1.08c-.05,1.07-.17,2.25-.29,3.31h1.92Zm-9.49,2.64h8.37v5.93h-1.56v-.56h-5.32v.61h-1.49v-5.98Zm1.49,1.37v2.64h5.32v-2.64h-5.32Zm2.02-5.98c-.17.69-.32,1.37-.44,1.97h3.03c.07-.64.14-1.36.19-1.97h-2.78Z"/><path class="cls-1" d="m209.76,53.21v13.43h-1.71v-1.34h-9.49v1.41h-1.63v-13.49h12.83Zm-1.71,10.48v-8.88h-9.49v8.88h9.49Z"/><path class="cls-1" d="m224.99,63.11h4.41v1.39h-4.41v2.61h-1.54v-2.61h-4.12v-.36c-2.34,1.88-2.76,2.27-3,2.59-.15-.31-.58-.9-.85-1.12.34-.29.85-.88.85-1.75v-5.65h-2.17v-1.51h3.7v6.8l1.2-.93c.05.22.15.49.27.75v-.22h4.12v-1.59h-3.19v-1.37h3.19v-1.42h1.54v1.42h3.31v1.37h-3.31v1.59Zm-8.15-7.49c-.36-.8-1.19-2.09-1.9-2.98l1.19-.78c.75.88,1.61,2.1,2,2.87l-1.29.9Zm11.95-2.8c-.73,1.48-1.81,2.73-3.14,3.75,1.22.66,2.63,1.17,4.14,1.46-.32.32-.76.93-.98,1.34-1.64-.42-3.14-1.05-4.44-1.9-1.51.95-3.22,1.64-4.93,2.14-.17-.39-.53-1.02-.83-1.36,1.54-.37,3.1-.95,4.49-1.71-.95-.81-1.76-1.75-2.41-2.83h-1.2v-1.37h8.04l.27-.07,1,.56Zm-6.54.88c.56.76,1.27,1.46,2.08,2.05.86-.61,1.61-1.29,2.19-2.05h-4.27Z"/><path class="cls-1" d="m239.06,65.3c0,.76-.14,1.24-.61,1.49-.47.27-1.17.31-2.31.29-.03-.39-.24-1.12-.42-1.51.7.03,1.37.02,1.59.02.2-.02.29-.08.29-.32v-3.81h-2.29c-.15,2-.47,4.1-1.22,5.66-.27-.24-.92-.59-1.29-.75,1.12-2.34,1.2-5.71,1.2-8.19v-6.05h5.05v13.17Zm-1.46-5.34v-2.49h-2.17v.71c0,.54,0,1.15-.03,1.78h2.2Zm-2.17-6.37v2.41h2.17v-2.41h-2.17Zm12.75,4.61c-.41,2.27-1.17,4.14-2.19,5.65.78.85,1.68,1.56,2.7,2.03-.36.29-.78.83-1.02,1.22-.97-.53-1.83-1.24-2.58-2.09-.71.81-1.49,1.48-2.37,2-.2-.36-.59-.86-.92-1.14v1.2h-1.49v-14.92h7.37v3.25c0,.73-.15,1.14-.75,1.34-.59.22-1.49.22-2.75.22-.07-.41-.3-.97-.49-1.34.93.03,1.88.03,2.12.02.27,0,.36-.05.36-.25v-1.76h-4.37v4.29h5.2l.25-.05.92.32Zm-6.37,7.65c.88-.46,1.7-1.15,2.41-1.98-.9-1.31-1.59-2.83-2.1-4.49h-.31v6.48Zm1.64-6.48c.39,1.19.93,2.29,1.61,3.27.59-.97,1.08-2.05,1.42-3.27h-3.03Z"/><path class="cls-1" d="m266.23,53.77c-1,1.49-2.53,2.68-4.34,3.58,1.7.44,3.68.7,5.8.81-.34.34-.69.98-.88,1.39-2.58-.2-4.9-.63-6.83-1.39-2.2.81-4.68,1.31-7.1,1.59-.12-.39-.37-1.02-.61-1.37,2.02-.19,4.05-.54,5.93-1.07-.85-.49-1.58-1.07-2.22-1.75-.63.49-1.34.97-2.14,1.37-.19-.36-.63-.95-.95-1.19,2.37-1.17,4-2.8,4.87-4.24l1.61.32c-.27.46-.59.92-.95,1.36h6.58l.27-.07.97.64Zm0,7.1s-.05.44-.08.64c-.39,3-.76,4.31-1.37,4.85-.42.37-.85.47-1.54.51-.56.03-1.59.03-2.63-.03-.02-.41-.24-.98-.51-1.37,1.08.1,2.22.12,2.66.12.37,0,.58-.02.76-.17.39-.31.7-1.25.98-3.19h-4.87c-1.1,2.63-3.14,4-6.32,4.83-.15-.36-.61-1.02-.9-1.32,2.75-.54,4.54-1.59,5.53-3.51h-4.39v-1.36h4.92c.14-.47.24-1,.31-1.58l1.64.14c-.08.51-.19,1-.32,1.44h6.14Zm-9.22-6.15c.7.81,1.71,1.47,2.97,2,1.48-.59,2.76-1.31,3.73-2.19h-6.51l-.19.19Z"/><path class="cls-1" d="m4.02,91.32h2.95l4.03,12.56h-2.63l-.88-3.22H3.42l-.88,3.22H0l4.02-12.56Zm-.05,7.39h2.98l-.37-1.37c-.39-1.31-.73-2.75-1.08-4.1h-.08c-.32,1.37-.69,2.8-1.07,4.1l-.37,1.37Z"/><path class="cls-1" d="m16.66,101.22v-10.87h2.49v10.97c0,.58.25.76.49.76.1,0,.17,0,.34-.03l.31,1.85c-.29.12-.7.22-1.29.22-1.73,0-2.34-1.14-2.34-2.9Z"/><path class="cls-1" d="m25.3,94.38h2.49l1.03,4.68c.19.93.31,1.83.47,2.78h.07c.19-.95.36-1.86.59-2.78l1.15-4.68h2.2l1.19,4.68c.22.93.39,1.83.59,2.78h.08c.17-.95.31-1.85.48-2.78l1.03-4.68h2.31l-2.34,9.49h-2.93l-1-4.14c-.2-.9-.36-1.76-.54-2.76h-.08c-.19,1-.32,1.88-.53,2.76l-.97,4.14h-2.85l-2.46-9.49Z"/><path class="cls-1" d="m44.54,101.3c0-2.03,1.64-3.1,5.48-3.51-.05-.93-.46-1.64-1.63-1.64-.88,0-1.73.39-2.61.9l-.9-1.64c1.12-.7,2.48-1.25,3.97-1.25,2.41,0,3.65,1.44,3.65,4.19v5.54h-2.03l-.17-1.02h-.07c-.83.71-1.78,1.25-2.86,1.25-1.7,0-2.81-1.2-2.81-2.81Zm5.48-.07v-1.92c-2.32.29-3.1.93-3.1,1.78,0,.75.53,1.07,1.25,1.07s1.24-.34,1.85-.93Z"/><path class="cls-1" d="m58.5,107.5l.46-1.92c.17.05.44.12.66.12.97,0,1.51-.61,1.78-1.44l.17-.56-3.7-9.32h2.51l1.51,4.41c.29.85.53,1.76.8,2.68h.08c.22-.88.46-1.8.68-2.68l1.31-4.41h2.39l-3.37,9.78c-.83,2.24-1.85,3.53-3.97,3.53-.56,0-.93-.07-1.31-.19Z"/><path class="cls-1" d="m72.02,102.77l1.14-1.56c.85.66,1.66,1.03,2.54,1.03.95,0,1.37-.41,1.37-1,0-.71-.98-1.03-1.98-1.42-1.2-.46-2.54-1.19-2.54-2.78,0-1.7,1.37-2.9,3.54-2.9,1.37,0,2.44.58,3.22,1.17l-1.12,1.51c-.68-.49-1.34-.81-2.03-.81-.86,0-1.27.37-1.27.92,0,.7.88.95,1.88,1.32,1.25.48,2.64,1.1,2.64,2.87,0,1.66-1.31,3-3.78,3-1.27,0-2.66-.56-3.61-1.34Z"/><path class="cls-1" d="m42.82,12.33c-.25-.02-.5-.05-.75-.07v.02c-.72-.05-1.45-.08-2.19-.08s-1.47.03-2.19.08l2.19-4.44h4.97l-3.37-6.84c-.66-1.33-2.55-1.33-3.2,0l-5.95,12.05c-15.19,3.45-26.56,17.04-26.56,33.25,0,2.92.37,5.75,1.06,8.46l3.44-6.98c-.03-.49-.04-.98-.04-1.48,0-12.75,8.1-23.65,19.42-27.82l-10.66,21.6-2.39,4.85-7.27,14.72.05.02-.46.93c5.42,11.68,17.26,19.8,30.96,19.8,18.81,0,34.11-15.3,34.11-34.11,0-17.81-13.74-32.47-31.18-33.97Zm26.72,33.97c0,3.07-.47,6.03-1.34,8.82l-18.08-36.64c11.32,4.18,19.42,15.07,19.42,27.82Zm-29.65,29.65c-11.2,0-20.95-6.25-25.99-15.44l3.5-7.1,5.33-.77,27.43-3.99-2.08-4.2-22.96,3.34-5.33.77,2.17-4.39,2.4-4.85,11.01-22.3c1.48-.23,2.99-.34,4.52-.34s3.05.12,4.53.35l21.48,43.53c-5.04,9.18-14.81,15.42-26,15.42Z"/></g></svg>