<svg xmlns="http://www.w3.org/2000/svg" xmlns:xlink="http://www.w3.org/1999/xlink" width="266.577" height="107.692" viewBox="0 0 266.577 107.692">
  <defs>
    <linearGradient id="linear-gradient" y1="0.5" x2="7.217" y2="0.5" gradientUnits="objectBoundingBox">
      <stop offset="0" stop-color="#49c9ff"/>
      <stop offset="1" stop-color="#002d80"/>
    </linearGradient>
    <linearGradient id="linear-gradient-2" x1="-4.592" y1="0.5" x2="17.296" y2="0.5" xlink:href="#linear-gradient"/>
    <linearGradient id="linear-gradient-3" x1="-1.847" y1="0.5" x2="3.95" y2="0.5" xlink:href="#linear-gradient"/>
    <linearGradient id="linear-gradient-4" x1="-5.603" y1="0.5" x2="4.385" y2="0.5" xlink:href="#linear-gradient"/>
    <linearGradient id="linear-gradient-5" x1="-6.241" y1="0.5" x2="2.322" y2="0.5" xlink:href="#linear-gradient"/>
    <linearGradient id="linear-gradient-6" x1="-9.744" y1="0.5" x2="1" y2="0.5" xlink:href="#linear-gradient"/>
    <linearGradient id="linear-gradient-7" x1="0" y1="0.5" x2="1" y2="0.5" xlink:href="#linear-gradient"/>
  </defs>
  <g id="グループ_434" data-name="グループ 434" transform="translate(-3502.932 1301.229)">
    <g id="グループ_433" data-name="グループ 433" transform="translate(3603.887 -1280.237)">
      <path id="パス_196" data-name="パス 196" d="M3.438-10.529h10.13V-9H3.438ZM2.856-6.414H14.188v1.521H2.856Zm6.384.5a9.523,9.523,0,0,0,1.923,3.7A7.309,7.309,0,0,0,14.647,0a4.193,4.193,0,0,0-.393.418,6.294,6.294,0,0,0-.39.52q-.18.267-.307.487A7.961,7.961,0,0,1,9.907-1.226,12.646,12.646,0,0,1,7.848-5.6Zm2.213-8.43,1.683.575q-.477.83-1.01,1.678t-.985,1.44l-1.324-.528q.289-.435.6-.985t.581-1.123Q11.268-13.857,11.453-14.343ZM4.048-13.5l1.314-.661a10.548,10.548,0,0,1,.72.942q.353.517.634,1.019a6.9,6.9,0,0,1,.436.912l-1.4.769a6.871,6.871,0,0,0-.415-.937q-.272-.52-.6-1.056A11.422,11.422,0,0,0,4.048-13.5ZM7.57-10.22H9.232v3.662A11.543,11.543,0,0,1,9.109-4.91,7.523,7.523,0,0,1,8.64-3.193,6.919,6.919,0,0,1,7.647-1.5,8.359,8.359,0,0,1,5.952.087a12.852,12.852,0,0,1-2.582,1.4,3.578,3.578,0,0,0-.3-.416q-.193-.234-.4-.459A3.587,3.587,0,0,0,2.249.233a11.542,11.542,0,0,0,2.46-1.2A7.035,7.035,0,0,0,6.262-2.334a5.322,5.322,0,0,0,.855-1.44,6.057,6.057,0,0,0,.367-1.443A11.349,11.349,0,0,0,7.57-6.578ZM17.9-7.645h15.22v1.6H17.9Zm6.921-4.992h1.7V-.762A2.576,2.576,0,0,1,26.3.444a1.362,1.362,0,0,1-.77.6,4.9,4.9,0,0,1-1.418.252q-.888.051-2.183.051a3.792,3.792,0,0,0-.155-.547Q21.662.5,21.524.19t-.267-.535q.67.026,1.292.036t1.1,0q.473-.009.662-.009a.67.67,0,0,0,.4-.1.442.442,0,0,0,.115-.356Zm-5.752-.557H31.94v1.6H19.067Zm29.283.13,1.217-.831q.479.4.988.9t.954,1a8.14,8.14,0,0,1,.713.9l-1.308.921a6.49,6.49,0,0,0-.654-.916q-.423-.508-.923-1.023T48.35-13.063ZM37.282-9.4h15.23v1.521H37.282ZM37-4.5q1.015-.173,2.368-.425t2.868-.546q1.514-.294,3-.592l.118,1.451q-1.383.309-2.8.622t-2.725.6l-2.4.518Zm3.746-7.961h1.616V-.539A2.66,2.66,0,0,1,42.182.554a1.157,1.157,0,0,1-.637.575,3.874,3.874,0,0,1-1.179.252q-.728.06-1.78.052a3.6,3.6,0,0,0-.127-.519q-.091-.29-.21-.587a4.884,4.884,0,0,0-.238-.518q.768.027,1.44.031t.893-.012a.49.49,0,0,0,.316-.088.4.4,0,0,0,.085-.292Zm3.337-1.728,1.12,1.36q-1.038.34-2.3.617t-2.576.5q-1.317.221-2.553.377a3.9,3.9,0,0,0-.187-.68,5.215,5.215,0,0,0-.286-.668q1.2-.176,2.446-.409t2.372-.516Q43.248-13.9,44.082-14.192Zm1.7-.02h1.679Q47.435-12,47.6-9.928t.48,3.852a23.252,23.252,0,0,0,.749,3.112,8.225,8.225,0,0,0,.944,2.077,1.38,1.38,0,0,0,1.063.742q.318,0,.48-.69a13.736,13.736,0,0,0,.23-2.277,3.742,3.742,0,0,0,.639.522,4.033,4.033,0,0,0,.7.383A11.632,11.632,0,0,1,52.5.041a2.131,2.131,0,0,1-.687,1.127,1.877,1.877,0,0,1-1.138.321,2.277,2.277,0,0,1-1.54-.608,5.421,5.421,0,0,1-1.231-1.7A14.019,14.019,0,0,1,46.975-3.4a29.26,29.26,0,0,1-.654-3.235q-.26-1.757-.39-3.684T45.778-14.212Zm4.617,7.017,1.421.606a16.913,16.913,0,0,1-2.032,2.951,19.064,19.064,0,0,1-2.6,2.514A18.961,18.961,0,0,1,44.2.83a5.7,5.7,0,0,0-.488-.657,6.074,6.074,0,0,0-.608-.631,16.566,16.566,0,0,0,2.876-1.737A17,17,0,0,0,48.5-4.5,13.878,13.878,0,0,0,50.394-7.195ZM76.3-11.607H81.5V-.343H76.3V-1.777h3.722V-10.19H76.3Zm-.942,0h1.472V.968H75.36Zm.866,4.647h4.537v1.407H76.227Zm1.655-7.418,1.745.284q-.269.819-.572,1.652T78.5-11.026l-1.291-.305q.132-.429.263-.964t.245-1.086Q77.827-13.932,77.882-14.378Zm5.957,2.683h5.112v1.481H83.839Zm4.546,0h1.5v.48q0,.184-.01.292-.091,2.9-.187,4.91t-.226,3.3a15.72,15.72,0,0,1-.3,2.01A2.705,2.705,0,0,1,88.721.346a1.81,1.81,0,0,1-.659.587,2.845,2.845,0,0,1-.829.225,8.735,8.735,0,0,1-1.156.044q-.706-.011-1.441-.043a3.174,3.174,0,0,0-.16-.786A2.814,2.814,0,0,0,84.1-.4q.831.068,1.529.085T86.642-.3a1.312,1.312,0,0,0,.42-.057.742.742,0,0,0,.313-.227,2.127,2.127,0,0,0,.367-.917,15.715,15.715,0,0,0,.268-1.957q.112-1.268.207-3.221t.169-4.692Zm-4.329-2.692,1.55.359a25.563,25.563,0,0,1-.765,2.483,23.2,23.2,0,0,1-.978,2.306,13.414,13.414,0,0,1-1.117,1.895,4.3,4.3,0,0,0-.386-.309q-.247-.18-.5-.35a4.783,4.783,0,0,0-.443-.271A10.682,10.682,0,0,0,82.494-10a17.441,17.441,0,0,0,.894-2.112A22.634,22.634,0,0,0,84.057-14.387ZM83.25-7.063l1.257-.714q.458.593.957,1.3T86.4-5.115q.439.662.709,1.172l-1.366.848a11.9,11.9,0,0,0-.663-1.211q-.42-.684-.9-1.41T83.25-7.063ZM1.576,13.649H15.425v8.234H13.752V15.227H3.182v6.741H1.576Zm.841,5.73H14.7v1.578H2.417Zm5.2-8.734H9.3V26.413H7.613Zm12.217,1.1H31.29V26.179H29.57V13.37H21.483V26.239H19.831Zm1.115,5.812h9.34v1.588h-9.34Zm-.015,5.95h9.378v1.616H20.931Zm27.016-9.219,1.709.5a19.548,19.548,0,0,1-2.757,5.34,16.03,16.03,0,0,1-4.024,3.8,21.893,21.893,0,0,1-5.417,2.533,3.145,3.145,0,0,0-.267-.5q-.183-.29-.385-.583a4.074,4.074,0,0,0-.374-.478,20.048,20.048,0,0,0,5.235-2.232,13.932,13.932,0,0,0,3.8-3.461A16.591,16.591,0,0,0,47.947,14.289Zm-7.225.108a17.112,17.112,0,0,0,2.462,4.735,14.333,14.333,0,0,0,3.852,3.551,17.084,17.084,0,0,0,5.334,2.162,5.159,5.159,0,0,0-.409.474q-.225.29-.426.589t-.328.529a17.378,17.378,0,0,1-5.477-2.414A15.393,15.393,0,0,1,41.8,20.14a22.141,22.141,0,0,1-2.677-5.257Zm-4.043-.944H52.138v1.569H36.679Zm6.85-2.808h1.652v3.764H43.529Zm19.73,1.291h6.3v1.538h-6.3Zm5.769,0H69.3l.273-.062,1.054.29a26.477,26.477,0,0,1-1.464,6.516A15.778,15.778,0,0,1,66.5,23.344,13.14,13.14,0,0,1,62.752,26.4a3.529,3.529,0,0,0-.286-.475q-.183-.262-.388-.511a3.278,3.278,0,0,0-.387-.4,10.692,10.692,0,0,0,3.466-2.687,14.7,14.7,0,0,0,2.509-4.268,22.6,22.6,0,0,0,1.362-5.765ZM65.032,13.3a31.376,31.376,0,0,0,1.151,5,14.861,14.861,0,0,0,1.983,4.053,8.827,8.827,0,0,0,3.094,2.731,3.75,3.75,0,0,0-.411.4q-.219.243-.416.5a3.873,3.873,0,0,0-.324.482A10.32,10.32,0,0,1,66.862,23.4a16.36,16.36,0,0,1-2.071-4.38,38.754,38.754,0,0,1-1.259-5.495Zm-9.108-1.361h5.694v1.538H55.925Zm5.127,0h.275l.283-.062,1.03.292a32.995,32.995,0,0,1-1.142,6.18,19.438,19.438,0,0,1-2.055,4.738,13.062,13.062,0,0,1-2.9,3.337,3.558,3.558,0,0,0-.321-.448q-.2-.244-.42-.473a2.775,2.775,0,0,0-.421-.367,9.425,9.425,0,0,0,2.064-2.077,15.263,15.263,0,0,0,1.669-2.922,22.322,22.322,0,0,0,1.222-3.624,29.466,29.466,0,0,0,.714-4.192Zm-5.1,4.035,1.2-.933q.806.923,1.658,1.972t1.65,2.125q.8,1.076,1.447,2.08a17.649,17.649,0,0,1,1.05,1.828L61.6,24.16a18.062,18.062,0,0,0-1-1.848q-.622-1.018-1.387-2.126T57.6,18Q56.758,16.915,55.952,15.971ZM93.9,12.377h13.043V25.989H105.2V14H95.575V26.049H93.9Zm.779,10.594H106.34v1.652H94.683Zm36.3-11.712h3.9v1.493h-3.9Zm0,3.926h3.947v1.493h-3.947Zm6.64,1.956H143.7v1.472h-6.078ZM130.963,19.2h3.921v1.521h-3.921Zm-.615-7.944H131.8v6.149q0,1.007-.046,2.187t-.186,2.4a20.42,20.42,0,0,1-.411,2.367,10.852,10.852,0,0,1-.711,2.092,2.4,2.4,0,0,0-.375-.273q-.238-.146-.49-.278a3.13,3.13,0,0,0-.443-.2,9.112,9.112,0,0,0,.667-1.938,18.543,18.543,0,0,0,.357-2.157q.118-1.109.151-2.188t.033-2.014Zm3.639,0h1.493V24.605a2.876,2.876,0,0,1-.133.957,1.044,1.044,0,0,1-.495.571,2.3,2.3,0,0,1-.917.251q-.558.05-1.411.043a3.339,3.339,0,0,0-.085-.488q-.068-.285-.16-.569a2.917,2.917,0,0,0-.2-.485q.541.017.994.017t.614-.007a.366.366,0,0,0,.229-.071.331.331,0,0,0,.071-.248Zm8.7.037h1.548v3.3a2.027,2.027,0,0,1-.156.877,1.046,1.046,0,0,1-.617.49,4.1,4.1,0,0,1-1.135.185q-.691.031-1.66.031a3.069,3.069,0,0,0-.194-.7q-.149-.376-.3-.659.479.009.924.023t.78,0q.335-.009.461-.009a.508.508,0,0,0,.274-.062.252.252,0,0,0,.07-.208Zm.571,5.844h.273l.264-.053.946.317a16.278,16.278,0,0,1-1.2,3.916,12.15,12.15,0,0,1-1.909,2.98,10.41,10.41,0,0,1-2.464,2.062,4.286,4.286,0,0,0-.417-.623,3.787,3.787,0,0,0-.515-.558,7.952,7.952,0,0,0,2.219-1.776,11.312,11.312,0,0,0,1.744-2.668,13.174,13.174,0,0,0,1.057-3.317Zm-3.5.956a14.5,14.5,0,0,0,1.252,2.945,11.525,11.525,0,0,0,1.849,2.464,8.384,8.384,0,0,0,2.377,1.7,4.03,4.03,0,0,0-.551.582,7.472,7.472,0,0,0-.477.656,9.423,9.423,0,0,1-2.462-1.946,13.142,13.142,0,0,1-1.908-2.746,18.653,18.653,0,0,1-1.348-3.318Zm-3.027-6.8H143.1V12.79h-4.843V26.428h-1.521Z" transform="translate(0.113 20.237)" fill="#002d80" stroke="rgba(0,0,0,0)" stroke-width="1"/>
      <path id="パス_197" data-name="パス 197" d="M3.816-10.476a32.251,32.251,0,0,0,1.152-3.2c.108-.4.126-.468.234-.774l-1.224-.4A9.166,9.166,0,0,1,3.51-12.8,16.526,16.526,0,0,1,.36-7a2.682,2.682,0,0,1,.756.99A12.645,12.645,0,0,0,2.79-8.73c-.054.792-.072,1.368-.072,2.178v5.544A18.9,18.9,0,0,1,2.61,1.206h1.3a15.784,15.784,0,0,1-.09-2.16Zm11.448-2.43V-.4c0,.342-.162.45-.72.45a10.6,10.6,0,0,1-1.962-.2,5.388,5.388,0,0,1,.306,1.206c.414.036,1.152.072,1.584.072.9,0,1.26-.072,1.53-.288A1.193,1.193,0,0,0,16.38-.162V-12.4a13.157,13.157,0,0,1,.072-1.6,10.461,10.461,0,0,1-1.494.072H11.916a10.307,10.307,0,0,1-1.584-.09v1.206a10.628,10.628,0,0,1,1.638-.09ZM5.958-11.322a15.516,15.516,0,0,1,.108,2.034V-.81a15.184,15.184,0,0,1-.108,2.07H7.29A15.09,15.09,0,0,1,7.2-.81V-9.288a14.82,14.82,0,0,1,.09-2.034Zm.72-3.168a15.25,15.25,0,0,1,1.944,3.456l1.026-.54a18.864,18.864,0,0,0-2.016-3.4Z" transform="translate(55.113 20.237)" fill="#002d80" stroke="#002d80" stroke-linecap="round" stroke-width="0.5"/>
      <path id="パス_198" data-name="パス 198" d="M7.65-7.524a11.419,11.419,0,0,1-1.764-.09v1.17a12,12,0,0,1,1.764-.09h7.956a10.829,10.829,0,0,1,1.746.108V-7.632a8.916,8.916,0,0,1-1.746.108H15.3V-9.756a10.552,10.552,0,0,1,.072-1.53,11.505,11.505,0,0,1-1.548.072H10.98a21.123,21.123,0,0,0,.468-2.07h3.744a11.853,11.853,0,0,1,1.764.09v-1.17a11.8,11.8,0,0,1-1.8.09H8.028a12.421,12.421,0,0,1-1.782-.09v1.17a11.736,11.736,0,0,1,1.746-.09H10.35c-.162.846-.2,1.008-.45,2.07H8.352A10.245,10.245,0,0,1,6.8-11.3v1.152a13.3,13.3,0,0,1,1.548-.09H9.63a23.674,23.674,0,0,1-.936,2.718Zm2.178,0c.378-1.008.5-1.422.882-2.718H14.2v2.718ZM3.24-1.314a1.044,1.044,0,0,1-.594.9L3.276.612C4.662-.342,5.49-.918,5.742-1.1c.27-.18.522-.36.792-.558l-.09-1.35c-.846.684-1.368,1.08-2.034,1.53v-6.03A13.746,13.746,0,0,1,4.5-9.414a10.756,10.756,0,0,1-1.386.09H2.286A7.41,7.41,0,0,1,.9-9.414v1.26a7.051,7.051,0,0,1,1.314-.09H3.24Zm4.3.864a13.863,13.863,0,0,1-.09,1.764H8.64v-.9h6.066v.9h1.188A13.956,13.956,0,0,1,15.8-.432V-3.438a11.767,11.767,0,0,1,.072-1.584,10.521,10.521,0,0,1-1.548.072H9.054A12.113,12.113,0,0,1,7.47-5.022a12.014,12.014,0,0,1,.072,1.494Zm1.1-3.51h6.066V-.612H8.64ZM2.016-14.13A13.8,13.8,0,0,1,4.7-11.61l.864-.918a18.647,18.647,0,0,0-2.7-2.394Z" transform="translate(73.113 46.237)" fill="#002d80" stroke="#002d80" stroke-width="0.5"/>
      <path id="パス_199" data-name="パス 199" d="M3.438-1.53c-.054.558-.144.684-.666.936L3.33.432c.378-.2.45-.234,1.062-.594.306-.162,1.224-.684,1.62-.9.558-.306.684-.378,1.116-.648L7.074-2.88A28.324,28.324,0,0,1,4.608-1.458v-5.85A13.746,13.746,0,0,1,4.7-9.216a10.755,10.755,0,0,1-1.386.09H2.07a7.41,7.41,0,0,1-1.386-.09v1.26A7.051,7.051,0,0,1,2-8.046h1.44ZM12.6-6.174a13.657,13.657,0,0,1,.09-1.764H11.466a15.9,15.9,0,0,1,.09,1.764H9.342a8.123,8.123,0,0,1-1.476-.09v1.152A8.367,8.367,0,0,1,9.342-5.2h2.214V-3.1H8.982a8.1,8.1,0,0,1-1.494-.09V-2a7.751,7.751,0,0,1,1.494-.09h2.574V-.342a10.066,10.066,0,0,1-.108,1.62h1.26a9.46,9.46,0,0,1-.108-1.6V-2.088h2.844A8.894,8.894,0,0,1,16.992-2V-3.186a9,9,0,0,1-1.566.09H12.6V-5.2h2.106a8.442,8.442,0,0,1,1.512.09V-6.264a8.2,8.2,0,0,1-1.512.09ZM2.232-14.13A15.978,15.978,0,0,1,5.346-11.3l.846-.936a20.214,20.214,0,0,0-3.114-2.682Zm13.122-.054a10.406,10.406,0,0,1-1.692.09H9.342c-1.062,0-1.746-.018-2.322-.072v1.1a10.406,10.406,0,0,1,1.044-.054h.252a11.6,11.6,0,0,0,2.97,3.2,15,15,0,0,1-4.7,2.124,2.236,2.236,0,0,1,.756.972,17.968,17.968,0,0,0,4.842-2.484,19.176,19.176,0,0,0,4.608,2.412,2.183,2.183,0,0,1,.72-.936A14.968,14.968,0,0,1,13-9.864a11.439,11.439,0,0,0,2.394-2.7,4.317,4.317,0,0,0,.324-.468,4.226,4.226,0,0,1,.4-.522ZM14.4-13.122a8.394,8.394,0,0,1-2.322,2.646,10.907,10.907,0,0,1-2.592-2.646Z" transform="translate(110.113 46.237)" fill="#002d80" stroke="#002d80" stroke-width="0.5"/>
      <path id="パス_200" data-name="パス 200" d="M14.058-13.3a10.43,10.43,0,0,1-1.674.09H6.948c.216-.27.27-.324.54-.684.144-.2.342-.468.63-.81l-1.3-.306A6.281,6.281,0,0,1,5.616-13.3,12.464,12.464,0,0,1,1.4-10.26a2.953,2.953,0,0,1,.774.792,13.314,13.314,0,0,0,3.15-2.088A10.287,10.287,0,0,0,8.244-8.982,27.468,27.468,0,0,1,1.386-7.434a2.79,2.79,0,0,1,.522,1.062A31.716,31.716,0,0,0,9.414-8.334a11.451,11.451,0,0,0,1.224.522,29.523,29.523,0,0,0,5.868,1.368,3.421,3.421,0,0,1,.558-1.116A25.1,25.1,0,0,1,10.71-9a12.141,12.141,0,0,0,3.006-2.412c.81-.918.864-.972,1.026-1.134ZM6.084-12.276H12.96A10.7,10.7,0,0,1,9.5-9.54,11.221,11.221,0,0,1,6.012-12.2ZM7.668-4.122C6.642-1.674,4.806-.5.972.162a3.554,3.554,0,0,1,.63,1.08C5.724.324,7.758-1.206,8.838-4.122H14.13a11.907,11.907,0,0,1-.54,3.006c-.252.72-.5.882-1.422.882A14.191,14.191,0,0,1,9.684-.468a4.571,4.571,0,0,1,.36,1.206c.99.09,1.548.126,2.124.126a4.788,4.788,0,0,0,1.566-.18,1.75,1.75,0,0,0,.81-.936,19.943,19.943,0,0,0,.828-4.32l.072-.648a16.147,16.147,0,0,1-1.854.072H9.144a3.849,3.849,0,0,0,.108-.486A7.469,7.469,0,0,1,9.5-6.84L8.136-6.912a2.3,2.3,0,0,1,.036.306,6.536,6.536,0,0,1-.2,1.458H3.906a11.216,11.216,0,0,1-1.854-.108v1.242a11.727,11.727,0,0,1,1.836-.108Z" transform="translate(148.113 46.237)" fill="#002d80" stroke="#002d80" stroke-width="0.5"/>
    </g>
    <g id="グループ_432" data-name="グループ 432" transform="translate(3458 -1337)">
      <g id="グループ_22" data-name="グループ 22">
        <g id="グループ_21" data-name="グループ 21">
          <path id="パス_27" data-name="パス 27" d="M48.949,127.086H51.9l4.035,12.562H53.306l-.881-3.221H48.356l-.881,3.221H44.932Zm-.051,7.392h2.984l-.373-1.373c-.39-1.306-.729-2.747-1.085-4.1h-.085c-.321,1.373-.694,2.8-1.068,4.1Z" fill="url(#linear-gradient)"/>
          <path id="パス_28" data-name="パス 28" d="M61.59,136.986V126.12h2.492v10.968c0,.577.254.763.491.763a1.408,1.408,0,0,0,.34-.034l.305,1.848a3.33,3.33,0,0,1-1.289.22C62.2,139.885,61.59,138.75,61.59,136.986Z" fill="url(#linear-gradient-2)"/>
          <path id="パス_29" data-name="パス 29" d="M70.229,130.155h2.493l1.034,4.679c.186.932.305,1.831.474,2.78H74.3c.187-.949.356-1.865.594-2.78l1.152-4.679h2.2l1.187,4.679c.22.932.39,1.831.593,2.78h.085c.17-.949.305-1.848.475-2.78l1.034-4.679h2.305l-2.339,9.493H78.655l-1-4.136c-.2-.9-.356-1.763-.543-2.764h-.084c-.187,1-.322,1.882-.526,2.764l-.966,4.136H72.688Z" fill="url(#linear-gradient-3)"/>
          <path id="パス_30" data-name="パス 30" d="M89.475,137.071c0-2.034,1.644-3.1,5.475-3.509-.051-.932-.458-1.644-1.627-1.644a5.37,5.37,0,0,0-2.611.9l-.9-1.644a7.588,7.588,0,0,1,3.967-1.255c2.408,0,3.645,1.442,3.645,4.188v5.543H95.391l-.17-1.017h-.068a4.459,4.459,0,0,1-2.864,1.254A2.7,2.7,0,0,1,89.475,137.071ZM94.95,137v-1.916c-2.323.288-3.1.932-3.1,1.78,0,.746.526,1.068,1.254,1.068A2.58,2.58,0,0,0,94.95,137Z" fill="url(#linear-gradient-4)"/>
          <path id="パス_31" data-name="パス 31" d="M103.434,143.276l.458-1.916a2.545,2.545,0,0,0,.661.119,1.817,1.817,0,0,0,1.78-1.441l.169-.559-3.695-9.324h2.508l1.509,4.407c.289.848.526,1.763.8,2.679h.085c.22-.882.458-1.8.678-2.679l1.305-4.407h2.391l-3.374,9.781c-.831,2.238-1.848,3.527-3.967,3.527A4.009,4.009,0,0,1,103.434,143.276Z" fill="url(#linear-gradient-5)"/>
          <path id="パス_32" data-name="パス 32" d="M116.947,138.546l1.136-1.56a4.118,4.118,0,0,0,2.543,1.035c.949,0,1.373-.407,1.373-1,0-.713-.983-1.035-1.983-1.425-1.2-.457-2.543-1.186-2.543-2.78,0-1.695,1.373-2.9,3.543-2.9a5.265,5.265,0,0,1,3.221,1.17l-1.119,1.509a3.531,3.531,0,0,0-2.035-.814c-.864,0-1.271.373-1.271.915,0,.7.882.95,1.882,1.323,1.254.475,2.644,1.1,2.644,2.865,0,1.661-1.305,3-3.78,3A6.021,6.021,0,0,1,116.947,138.546Z" fill="url(#linear-gradient-6)"/>
        </g>
        <path id="パス_33" data-name="パス 33" d="M87.748,48.1c-.249-.024-.5-.054-.746-.072l.008.016c-.726-.046-1.457-.078-2.195-.078s-1.466.032-2.191.078l2.192-4.442H89.79l-3.372-6.838a1.785,1.785,0,0,0-3.2,0L77.264,48.822a34.117,34.117,0,0,0-25.5,41.708l3.44-6.98c-.03-.49-.04-.98-.04-1.48A29.692,29.692,0,0,1,74.586,54.25l-10.665,21.6L61.53,80.708,54.263,95.429l.049.024-.457.927A34.106,34.106,0,1,0,87.748,48.1ZM114.465,82.07a29.562,29.562,0,0,1-1.34,8.821L95.046,54.25A29.693,29.693,0,0,1,114.465,82.07Zm-29.65,29.65A29.658,29.658,0,0,1,58.822,96.276l3.5-7.1,5.327-.772,27.435-3.988-2.079-4.2-22.96,3.337-5.327.771,2.168-4.393,2.395-4.854,11.008-22.3a29.86,29.86,0,0,1,9.052,0L110.818,96.3A29.67,29.67,0,0,1,84.815,111.72Z" fill="url(#linear-gradient-7)"/>
      </g>
    </g>
  </g>
</svg>
