<svg xmlns="http://www.w3.org/2000/svg" xmlns:xlink="http://www.w3.org/1999/xlink" width="65.231" height="19.111" viewBox="0 0 65.231 19.111">
  <defs>
    <linearGradient id="linear-gradient" y1="0.712" x2="1" y2="0.709" gradientUnits="objectBoundingBox">
      <stop offset="0" stop-color="#49c9ff"/>
      <stop offset="1" stop-color="#002d80"/>
    </linearGradient>
  </defs>
  <path id="Union_7" data-name="Union 7" d="M-2850.7,338.805a8.512,8.512,0,0,1-2.391-1.352l1.6-2.231a9.2,9.2,0,0,0,1.779,1.086,4.375,4.375,0,0,0,1.819.4,2.274,2.274,0,0,0,1.479-.4,1.279,1.279,0,0,0,.477-1.03,1.073,1.073,0,0,0-.406-.849,4.07,4.07,0,0,0-1.052-.622q-.648-.275-1.354-.539a12.829,12.829,0,0,1-1.676-.824,4.4,4.4,0,0,1-1.372-1.239,3.124,3.124,0,0,1-.544-1.874,3.743,3.743,0,0,1,.616-2.129,4.11,4.11,0,0,1,1.737-1.443,6.207,6.207,0,0,1,2.642-.522,6.431,6.431,0,0,1,2.607.5,8.919,8.919,0,0,1,1.964,1.151l-1.589,2.128a8.139,8.139,0,0,0-1.428-.835,3.53,3.53,0,0,0-1.452-.317,2.1,2.1,0,0,0-1.358.363,1.169,1.169,0,0,0-.436.943,1,1,0,0,0,.364.8,3.35,3.35,0,0,0,.983.554l1.325.509q.675.25,1.334.569a5.583,5.583,0,0,1,1.2.783,3.52,3.52,0,0,1,.869,1.113,3.513,3.513,0,0,1,.326,1.586,3.972,3.972,0,0,1-.611,2.152,4.176,4.176,0,0,1-1.795,1.536,6.809,6.809,0,0,1-2.939.564A7.615,7.615,0,0,1-2850.7,338.805Zm-35-.313a6.159,6.159,0,0,1-2.408-2.417,7.583,7.583,0,0,1-.893-3.793,7.838,7.838,0,0,1,.519-2.934,6.761,6.761,0,0,1,1.411-2.222,6.221,6.221,0,0,1,2.014-1.407,5.766,5.766,0,0,1,2.309-.484,5.52,5.52,0,0,1,3.1.822,5.1,5.1,0,0,1,1.88,2.271,8.183,8.183,0,0,1,.635,3.32,8.877,8.877,0,0,1-.047.93,5.43,5.43,0,0,1-.113.7h-8.291a4.159,4.159,0,0,0,.659,1.831,3.312,3.312,0,0,0,1.294,1.119,4.049,4.049,0,0,0,1.787.382,4.946,4.946,0,0,0,1.545-.238,6.923,6.923,0,0,0,1.467-.69l1.189,2.167a8.7,8.7,0,0,1-2.2,1.078,7.8,7.8,0,0,1-2.463.4A6.91,6.91,0,0,1-2885.7,338.492Zm5.559-7.578a3.434,3.434,0,0,0-.621-2.155,2.284,2.284,0,0,0-1.93-.8,2.74,2.74,0,0,0-1.316.331,2.906,2.906,0,0,0-1.052.985,4,4,0,0,0-.577,1.643Zm17.334,8.086-1.417-5.863q-.212-.949-.394-1.9t-.389-2.015h-.12q-.185,1.062-.349,2.02t-.383,1.908l-1.368,5.853h-4.033l-3.46-13.434h3.506l1.488,6.619q.178,1,.322,1.963t.318,1.972h.12q.2-1.008.393-1.981t.43-1.954l1.638-6.619h3.118l1.675,6.619q.24,1,.443,1.963t.424,1.972h.114q.18-1.008.335-1.972t.339-1.963l1.435-6.619h3.29L-2858.657,339Zm-34.036,0-5.129-9.514-1.8-3.806h-.114q.123,1.43.287,3.04a31.3,31.3,0,0,1,.164,3.158V339h-3.367V321.22h3.614l5.153,9.476,1.8,3.844h.12q-.147-1.384-.314-3.046t-.167-3.184v-7.09h3.372V339Z" transform="translate(2907.309 -320.72)" stroke="rgba(0,0,0,0)" stroke-miterlimit="10" stroke-width="1" fill="url(#linear-gradient)"/>
</svg>
