<svg xmlns="http://www.w3.org/2000/svg" width="14.616" height="174.894" viewBox="0 0 14.616 174.894">
  <g id="Group_396" data-name="Group 396" transform="translate(-398.461 -708.498)">
    <path id="Path_166" data-name="Path 166" d="M5.616.252c3.078,0,4.9-1.854,4.9-4.032A3.68,3.68,0,0,0,7.83-7.4L6.084-8.136c-1.134-.45-2.07-.792-2.07-1.746,0-.882.738-1.4,1.908-1.4a4.249,4.249,0,0,1,2.826,1.1l1.35-1.674a5.911,5.911,0,0,0-4.176-1.71c-2.7,0-4.608,1.674-4.608,3.852a3.859,3.859,0,0,0,2.7,3.582L5.8-5.382c1.188.5,2,.81,2,1.8,0,.936-.738,1.53-2.124,1.53A5.241,5.241,0,0,1,2.286-3.528L.756-1.692A7.1,7.1,0,0,0,5.616.252Zm13.122,0A5.08,5.08,0,0,0,22.05-.972L20.988-2.718a3.13,3.13,0,0,1-1.962.81c-1.44,0-2.5-1.224-2.5-3.132,0-1.89,1.044-3.132,2.592-3.132a2.294,2.294,0,0,1,1.53.666l1.26-1.71a4.407,4.407,0,0,0-2.934-1.116A5.028,5.028,0,0,0,13.824-5.04C13.824-1.692,15.948.252,18.738.252Zm7-.252h2.646V-6.012c.558-1.458,1.512-1.98,2.3-1.98a3.367,3.367,0,0,1,1.062.162l.45-2.286a2.852,2.852,0,0,0-1.188-.216A3.492,3.492,0,0,0,28.152-8.3H28.1l-.2-1.782H25.74ZM39.384.252c2.52,0,4.842-1.944,4.842-5.292s-2.322-5.292-4.842-5.292S34.542-8.388,34.542-5.04,36.864.252,39.384.252Zm0-2.16c-1.368,0-2.142-1.224-2.142-3.132,0-1.89.774-3.132,2.142-3.132S41.526-6.93,41.526-5.04C41.526-3.132,40.752-1.908,39.384-1.908ZM50.724.252A3.533,3.533,0,0,0,52.092.018l-.324-1.962a1.491,1.491,0,0,1-.36.036c-.252,0-.522-.2-.522-.81V-14.364H48.24V-2.826C48.24-.954,48.888.252,50.724.252Zm7.47,0A3.533,3.533,0,0,0,59.562.018l-.324-1.962a1.491,1.491,0,0,1-.36.036c-.252,0-.522-.2-.522-.81V-14.364H55.71V-2.826C55.71-.954,56.358.252,58.194.252Z" transform="translate(398.713 823.83) rotate(90)" fill="#fff"/>
    <line id="Line_1" data-name="Line 1" y2="106.097" transform="translate(404.393 708.498)" fill="none" stroke="#fff" stroke-miterlimit="10" stroke-width="1"/>
  </g>
</svg>
