<svg xmlns="http://www.w3.org/2000/svg" width="60" height="53" viewBox="0 0 60 53">
  <g id="グループ_394" data-name="グループ 394" transform="translate(-556 -1929)">
    <g id="グループ_150" data-name="グループ 150" transform="translate(-330 56)">
      <path id="多角形_2" data-name="多角形 2" d="M15,0l1.5,18L30,20,16.5,22,15,40,13.5,22,0,20l13.5-2Z" transform="translate(916 1886)" fill="#002d80"/>
      <path id="多角形_3" data-name="多角形 3" d="M10,0l1,9,9,1-9,1-1,9L9,11,0,10,9,9Z" transform="translate(931 1891.858) rotate(45)" fill="#002d80"/>
    </g>
    <g id="グループ_151" data-name="グループ 151" transform="translate(-359.688 42.75)">
      <path id="多角形_2-2" data-name="多角形 2" d="M10,0l1,11.7L20,13l-9,1.3L10,26,9,14.3,0,13l9-1.3Z" transform="translate(915.688 1886.25)" fill="#002d80"/>
      <path id="多角形_3-2" data-name="多角形 3" d="M6.563,0l.656,5.906,5.906.656-5.906.656-.656,5.906L5.906,7.219,0,6.563l5.906-.656Z" transform="translate(925.844 1889.844) rotate(45)" fill="#002d80"/>
    </g>
  </g>
</svg>
