<svg xmlns="http://www.w3.org/2000/svg" xmlns:xlink="http://www.w3.org/1999/xlink" width="252.128" height="107.692" viewBox="0 0 252.128 107.692">
  <defs>
    <linearGradient id="linear-gradient" y1="0.5" x2="7.217" y2="0.5" gradientUnits="objectBoundingBox">
      <stop offset="0" stop-color="#49c9ff"/>
      <stop offset="1" stop-color="#002d80"/>
    </linearGradient>
    <linearGradient id="linear-gradient-2" x1="-4.592" y1="0.5" x2="17.296" y2="0.5" xlink:href="#linear-gradient"/>
    <linearGradient id="linear-gradient-3" x1="-1.847" y1="0.5" x2="3.95" y2="0.5" xlink:href="#linear-gradient"/>
    <linearGradient id="linear-gradient-4" x1="-5.603" y1="0.5" x2="4.385" y2="0.5" xlink:href="#linear-gradient"/>
    <linearGradient id="linear-gradient-5" x1="-6.241" y1="0.5" x2="2.322" y2="0.5" xlink:href="#linear-gradient"/>
    <linearGradient id="linear-gradient-6" x1="-9.744" y1="0.5" x2="1" y2="0.5" xlink:href="#linear-gradient"/>
    <linearGradient id="linear-gradient-7" x1="0" y1="0.5" x2="1" y2="0.5" xlink:href="#linear-gradient"/>
  </defs>
  <g id="Group_23" data-name="Group 23" transform="translate(-44.932 -35.771)">
    <text id="オールウェイズ_日中通訳サービス" data-name="オールウェイズ
日中通訳サービス" transform="translate(147.06 75.845)" fill="#002d80" font-size="16.952" font-family="NotoSansJP-Bold, Noto Sans JP" font-weight="700" letter-spacing="0.12em"><tspan x="0" y="0">オールウェイズ</tspan><tspan x="0" y="25.665">日中通訳</tspan><tspan y="25.665">サービス</tspan></text>
    <g id="Group_22" data-name="Group 22">
      <g id="Group_21" data-name="Group 21">
        <path id="Path_27" data-name="Path 27" d="M48.949,127.086H51.9l4.035,12.562H53.306l-.881-3.221H48.356l-.881,3.221H44.932Zm-.051,7.392h2.984l-.373-1.373c-.39-1.306-.729-2.747-1.085-4.1h-.085c-.321,1.373-.694,2.8-1.068,4.1Z" fill="url(#linear-gradient)"/>
        <path id="Path_28" data-name="Path 28" d="M61.59,136.986V126.12h2.492v10.968c0,.577.254.763.491.763a1.408,1.408,0,0,0,.34-.034l.305,1.848a3.33,3.33,0,0,1-1.289.22C62.2,139.885,61.59,138.75,61.59,136.986Z" fill="url(#linear-gradient-2)"/>
        <path id="Path_29" data-name="Path 29" d="M70.229,130.155h2.493l1.034,4.679c.186.932.305,1.831.474,2.78H74.3c.187-.949.356-1.865.594-2.78l1.152-4.679h2.2l1.187,4.679c.22.932.39,1.831.593,2.78h.085c.17-.949.305-1.848.475-2.78l1.034-4.679h2.305l-2.339,9.493H78.655l-1-4.136c-.2-.9-.356-1.763-.543-2.764h-.084c-.187,1-.322,1.882-.526,2.764l-.966,4.136H72.688Z" fill="url(#linear-gradient-3)"/>
        <path id="Path_30" data-name="Path 30" d="M89.475,137.071c0-2.034,1.644-3.1,5.475-3.509-.051-.932-.458-1.644-1.627-1.644a5.37,5.37,0,0,0-2.611.9l-.9-1.644a7.588,7.588,0,0,1,3.967-1.255c2.408,0,3.645,1.442,3.645,4.188v5.543H95.391l-.17-1.017h-.068a4.459,4.459,0,0,1-2.864,1.254A2.7,2.7,0,0,1,89.475,137.071ZM94.95,137v-1.916c-2.323.288-3.1.932-3.1,1.78,0,.746.526,1.068,1.254,1.068A2.58,2.58,0,0,0,94.95,137Z" fill="url(#linear-gradient-4)"/>
        <path id="Path_31" data-name="Path 31" d="M103.434,143.276l.458-1.916a2.545,2.545,0,0,0,.661.119,1.817,1.817,0,0,0,1.78-1.441l.169-.559-3.695-9.324h2.508l1.509,4.407c.289.848.526,1.763.8,2.679h.085c.22-.882.458-1.8.678-2.679l1.305-4.407h2.391l-3.374,9.781c-.831,2.238-1.848,3.527-3.967,3.527A4.009,4.009,0,0,1,103.434,143.276Z" fill="url(#linear-gradient-5)"/>
        <path id="Path_32" data-name="Path 32" d="M116.947,138.546l1.136-1.56a4.118,4.118,0,0,0,2.543,1.035c.949,0,1.373-.407,1.373-1,0-.713-.983-1.035-1.983-1.425-1.2-.457-2.543-1.186-2.543-2.78,0-1.695,1.373-2.9,3.543-2.9a5.265,5.265,0,0,1,3.221,1.17l-1.119,1.509a3.531,3.531,0,0,0-2.035-.814c-.864,0-1.271.373-1.271.915,0,.7.882.95,1.882,1.323,1.254.475,2.644,1.1,2.644,2.865,0,1.661-1.305,3-3.78,3A6.021,6.021,0,0,1,116.947,138.546Z" fill="url(#linear-gradient-6)"/>
      </g>
      <path id="Path_33" data-name="Path 33" d="M87.748,48.1c-.249-.024-.5-.054-.746-.072l.008.016c-.726-.046-1.457-.078-2.195-.078s-1.466.032-2.191.078l2.192-4.442H89.79l-3.372-6.838a1.785,1.785,0,0,0-3.2,0L77.264,48.822a34.117,34.117,0,0,0-25.5,41.708l3.44-6.98c-.03-.49-.04-.98-.04-1.48A29.692,29.692,0,0,1,74.586,54.25l-10.665,21.6L61.53,80.708,54.263,95.429l.049.024-.457.927A34.106,34.106,0,1,0,87.748,48.1ZM114.465,82.07a29.562,29.562,0,0,1-1.34,8.821L95.046,54.25A29.693,29.693,0,0,1,114.465,82.07Zm-29.65,29.65A29.658,29.658,0,0,1,58.822,96.276l3.5-7.1,5.327-.772,27.435-3.988-2.079-4.2-22.96,3.337-5.327.771,2.168-4.393,2.395-4.854,11.008-22.3a29.86,29.86,0,0,1,9.052,0L110.818,96.3A29.67,29.67,0,0,1,84.815,111.72Z" fill="url(#linear-gradient-7)"/>
    </g>
  </g>
</svg>
