<svg xmlns="http://www.w3.org/2000/svg" xmlns:xlink="http://www.w3.org/1999/xlink" width="250.64" height="107.692" viewBox="0 0 250.64 107.692">
  <defs>
    <linearGradient id="linear-gradient" y1="0.5" x2="7.217" y2="0.5" gradientUnits="objectBoundingBox">
      <stop offset="0" stop-color="#49c9ff"/>
      <stop offset="1" stop-color="#002d80"/>
    </linearGradient>
    <linearGradient id="linear-gradient-2" x1="-4.592" y1="0.5" x2="17.296" y2="0.5" xlink:href="#linear-gradient"/>
    <linearGradient id="linear-gradient-3" x1="-1.847" y1="0.5" x2="3.95" y2="0.5" xlink:href="#linear-gradient"/>
    <linearGradient id="linear-gradient-4" x1="-5.603" y1="0.5" x2="4.385" y2="0.5" xlink:href="#linear-gradient"/>
    <linearGradient id="linear-gradient-5" x1="-6.241" y1="0.5" x2="2.322" y2="0.5" xlink:href="#linear-gradient"/>
    <linearGradient id="linear-gradient-6" x1="-9.744" y1="0.5" x2="1" y2="0.5" xlink:href="#linear-gradient"/>
    <linearGradient id="linear-gradient-7" x1="0" y1="0.5" x2="1" y2="0.5" xlink:href="#linear-gradient"/>
  </defs>
  <g id="Group_23" data-name="Group 23" transform="translate(-44.932 -35.771)">
    <path id="パス_155" data-name="パス 155" d="M11.595-13.578H9.188c.068.441.119.983.17,1.712q.025.559.051,1.221H3.8a16.227,16.227,0,0,1-1.882-.119V-8.51c.593-.034,1.322-.068,1.932-.068H8.476A20.128,20.128,0,0,1,1.017-2.7L2.577-.932a23.31,23.31,0,0,0,6.916-5.73c.034,1.746.034,3.441.034,4.577,0,.492-.17.712-.593.712a14.4,14.4,0,0,1-2.255-.2l.186,2.2c.966.068,1.916.1,2.95.1C11.1.729,11.73.1,11.714-.983c-.034-2.288-.1-5.119-.153-7.594h2.187c.458,0,1.1.034,1.644.051v-2.255a13.1,13.1,0,0,1-1.763.136H11.51c0-.441-.017-.848-.017-1.221A14.5,14.5,0,0,1,11.595-13.578Zm8.95,5.73v2.661c.627-.051,1.763-.085,2.729-.085h9.1c.712,0,1.576.068,1.983.085V-7.849c-.441.034-1.187.1-1.983.1h-9.1C22.393-7.747,21.155-7.8,20.545-7.849ZM46.5-.373,47.922.8a3.622,3.622,0,0,1,.729-.509A18.665,18.665,0,0,0,54.4-4.34L53.092-6.2a10.735,10.735,0,0,1-4.187,3.577v-8.866a8.608,8.608,0,0,1,.119-1.475H46.5a7.515,7.515,0,0,1,.136,1.458v9.883A6.451,6.451,0,0,1,46.5-.373ZM38.649-.627,40.718.746a9.939,9.939,0,0,0,3.017-4.865,37.4,37.4,0,0,0,.509-7.289,11.165,11.165,0,0,1,.119-1.543H41.87a6.433,6.433,0,0,1,.153,1.56c0,2.051-.017,5.255-.492,6.713A8,8,0,0,1,38.649-.627Zm28-13.222H64.043a8.376,8.376,0,0,1,.136,1.56v1.305H60.551a14.063,14.063,0,0,1-1.729-.085,10.823,10.823,0,0,1,.085,1.458v2.933a12.857,12.857,0,0,1-.085,1.424h2.339c-.034-.339-.051-.865-.051-1.254V-8.984h8.408A10.064,10.064,0,0,1,68.01-4.628a8.3,8.3,0,0,1-3.848,2.9,13.805,13.805,0,0,1-2.39.661L63.534.966a10.773,10.773,0,0,0,6.916-5.085,15.787,15.787,0,0,0,1.576-4.8,11.318,11.318,0,0,1,.339-1.356l-1.475-.9a4.124,4.124,0,0,1-1.407.186h-2.95V-12.29A12.321,12.321,0,0,1,66.653-13.849ZM79.282-9.188v2.136c.373-.034.983-.068,1.339-.068h2.644v5.458H79.808a13.093,13.093,0,0,1-1.39-.1V.458a10.013,10.013,0,0,1,1.39-.085h9.374A8.936,8.936,0,0,1,90.47.458V-1.763c-.356.034-.831.1-1.288.1h-3.7V-7.12h2.9c.39,0,.9.034,1.322.068V-9.188a11.539,11.539,0,0,1-1.322.085H80.621A8.882,8.882,0,0,1,79.282-9.188Zm16.7,2.594,1.068,2.136A33.967,33.967,0,0,0,103.031-6.9v5.424a18.985,18.985,0,0,1-.119,2.221h2.678a11.654,11.654,0,0,1-.153-2.221V-8.323A31.093,31.093,0,0,0,110-12l-1.831-1.746a21.732,21.732,0,0,1-4.78,4.119A27.258,27.258,0,0,1,95.98-6.594Zm30.445-7.51-1.339.559c.305.458.644,1.051.932,1.593l-.2-.153a6.191,6.191,0,0,1-1.746.2h-5.984a18.939,18.939,0,0,1-2-.119v2.407c.356-.017,1.288-.119,2-.119h5.747a13.134,13.134,0,0,1-2.526,4.153,19,19,0,0,1-6.95,4.865L116.1,1.119a22.271,22.271,0,0,0,6.374-4.746,37.477,37.477,0,0,1,4.272,4.8l1.932-1.7a47.655,47.655,0,0,0-4.729-4.848,24.832,24.832,0,0,0,2.661-4.645,8.341,8.341,0,0,1,.593-1.068l-.39-.288.966-.407A22.714,22.714,0,0,0,126.424-14.1Zm2.136-.593-1.339.559a19.9,19.9,0,0,1,1.373,2.322l1.339-.576A22.838,22.838,0,0,0,128.56-14.7ZM4.713,23.8V20h7.526v3.8Zm7.526-9.442V18H4.713V14.358ZM2.627,12.324V26.937H4.713v-1.1h7.526V26.9h2.17V12.324ZM28.5,19.868V16.223h3.831v3.645Zm-5.95,0V16.223H26.36v3.645ZM28.5,14.24V11.307H26.36V14.24H20.511v8.544h2.034v-.932H26.36V27.14H28.5V21.851h3.831V22.7h2.119V14.24ZM47.939,17v.915H45.989V17Zm3.8.915h-2V17h2Zm-2,2.356v-.949h2v.949Zm-3.746,0v-.949h1.949v.949Zm0,1.458h1.949v2.475h1.8V21.732h2v.78c0,.17-.051.237-.254.254-.17,0-.763,0-1.288-.017a5.512,5.512,0,0,1,.492,1.576,5.1,5.1,0,0,0,2.288-.288c.542-.271.7-.7.7-1.509V15.545H51.617c-.288-.17-.644-.339-1.017-.525a19.3,19.3,0,0,0,3.017-2.288l-1.2-.966-.39.1H44.243v1.526h6.035a15.663,15.663,0,0,1-1.356.9c-.7-.305-1.407-.576-2-.8l-1.305,1.085c.7.271,1.509.61,2.272.966h-3.8v8.73h1.9Zm-2.831-7.459a14.519,14.519,0,0,0-2.95-2.611l-1.39,1.288a13.76,13.76,0,0,1,2.831,2.763Zm-.509,3.611H38.565v1.848h2.153v3.7a23.333,23.333,0,0,1-2.373,1.543l.932,2.017c.949-.712,1.746-1.373,2.526-2.034,1.017,1.305,2.356,1.8,4.39,1.882,2.068.085,5.662.051,7.747-.051a8.33,8.33,0,0,1,.627-1.966c-2.322.186-6.34.237-8.357.153-1.729-.068-2.9-.542-3.56-1.678Zm20.7-6.052H58.364v1.526h4.984Zm.61,2.272H57.517V15.7h6.442ZM63.4,16.46H58.313V18H63.4Zm-5.085,3.831H63.4V18.783H58.313ZM70.722,17.41H66.891V13.918h3.831ZM61.7,24.665H59.958V22.716H61.7Zm11.035-5.357V12.019L66.043,12v.017H64.907v6.2c0,2.187-.119,4.916-1.492,6.95V21.122H58.262V26.9h1.7v-.661h3.458v-.068a6.7,6.7,0,0,1,1.051.983c1.831-2.017,2.305-5.221,2.407-7.849h1.492c.475,3.39,1.356,5.747,3.831,7.849a4.916,4.916,0,0,1,1.373-1.746c-2.034-1.576-2.814-3.356-3.238-6.1Zm15.884-1.136v-.559h1.254c.9,0,1.492.017,1.865.051V15.409a10.045,10.045,0,0,1-1.865.119H88.623v-1.78a10.679,10.679,0,0,1,.119-1.576H86.317a11.186,11.186,0,0,1,.1,1.576v1.78H82.4V13.85a10.36,10.36,0,0,1,.1-1.526H80.1c.051.509.1,1.034.1,1.526v1.678H78.757a11.011,11.011,0,0,1-1.831-.153v2.305c.373-.034.983-.068,1.831-.068H80.2v2.305a13.709,13.709,0,0,1-.1,1.78h2.373c-.017-.339-.068-1.034-.068-1.78V17.613h4.018v.644c0,4.17-1.441,5.628-4.713,6.764l1.814,1.712C87.605,24.936,88.623,22.377,88.623,18.173Zm7.866-.356v2.661c.627-.051,1.763-.085,2.729-.085h9.1c.712,0,1.576.068,1.983.085V17.817c-.441.034-1.187.1-1.983.1h-9.1C98.336,17.918,97.1,17.867,96.488,17.817Zm29.936-5.882-1.339.542a20.286,20.286,0,0,1,1.322,2.356l1.373-.576C127.458,13.63,126.848,12.562,126.424,11.934Zm2-.763-1.339.542a17.973,17.973,0,0,1,1.373,2.339l1.339-.576A18.711,18.711,0,0,0,128.425,11.172Zm-9.306,1.492H116.61a14.025,14.025,0,0,1,.136,1.763v9.239a2.446,2.446,0,0,0,2.322,2.543,18.869,18.869,0,0,0,2.848.186,48.17,48.17,0,0,0,6.035-.356V23.563a28.718,28.718,0,0,1-5.9.593,15.854,15.854,0,0,1-1.966-.1c-.763-.153-1.1-.339-1.1-1.068V19.851a58.512,58.512,0,0,0,6.645-2.068c.559-.2,1.322-.525,1.983-.8l-.915-2.153a10.963,10.963,0,0,1-1.848.915,42.75,42.75,0,0,1-5.865,1.882v-3.2A12.735,12.735,0,0,1,119.118,12.663Zm27.919,1.509-1.39-1.034a6.076,6.076,0,0,1-1.746.22h-5.984a18.939,18.939,0,0,1-2-.119v2.407c.356-.017,1.288-.119,2-.119h5.747a13.134,13.134,0,0,1-2.526,4.153,19,19,0,0,1-6.95,4.865l1.746,1.831a22.329,22.329,0,0,0,6.374-4.763,38.655,38.655,0,0,1,4.272,4.8l1.932-1.678a47.653,47.653,0,0,0-4.729-4.848,24.923,24.923,0,0,0,2.661-4.662A8.008,8.008,0,0,1,147.037,14.172Z" transform="translate(147.06 75.845)" fill="#002d80"/>
    <g id="Group_22" data-name="Group 22">
      <g id="Group_21" data-name="Group 21">
        <path id="Path_27" data-name="Path 27" d="M48.949,127.086H51.9l4.035,12.562H53.306l-.881-3.221H48.356l-.881,3.221H44.932Zm-.051,7.392h2.984l-.373-1.373c-.39-1.306-.729-2.747-1.085-4.1h-.085c-.321,1.373-.694,2.8-1.068,4.1Z" fill="url(#linear-gradient)"/>
        <path id="Path_28" data-name="Path 28" d="M61.59,136.986V126.12h2.492v10.968c0,.577.254.763.491.763a1.408,1.408,0,0,0,.34-.034l.305,1.848a3.33,3.33,0,0,1-1.289.22C62.2,139.885,61.59,138.75,61.59,136.986Z" fill="url(#linear-gradient-2)"/>
        <path id="Path_29" data-name="Path 29" d="M70.229,130.155h2.493l1.034,4.679c.186.932.305,1.831.474,2.78H74.3c.187-.949.356-1.865.594-2.78l1.152-4.679h2.2l1.187,4.679c.22.932.39,1.831.593,2.78h.085c.17-.949.305-1.848.475-2.78l1.034-4.679h2.305l-2.339,9.493H78.655l-1-4.136c-.2-.9-.356-1.763-.543-2.764h-.084c-.187,1-.322,1.882-.526,2.764l-.966,4.136H72.688Z" fill="url(#linear-gradient-3)"/>
        <path id="Path_30" data-name="Path 30" d="M89.475,137.071c0-2.034,1.644-3.1,5.475-3.509-.051-.932-.458-1.644-1.627-1.644a5.37,5.37,0,0,0-2.611.9l-.9-1.644a7.588,7.588,0,0,1,3.967-1.255c2.408,0,3.645,1.442,3.645,4.188v5.543H95.391l-.17-1.017h-.068a4.459,4.459,0,0,1-2.864,1.254A2.7,2.7,0,0,1,89.475,137.071ZM94.95,137v-1.916c-2.323.288-3.1.932-3.1,1.78,0,.746.526,1.068,1.254,1.068A2.58,2.58,0,0,0,94.95,137Z" fill="url(#linear-gradient-4)"/>
        <path id="Path_31" data-name="Path 31" d="M103.434,143.276l.458-1.916a2.545,2.545,0,0,0,.661.119,1.817,1.817,0,0,0,1.78-1.441l.169-.559-3.695-9.324h2.508l1.509,4.407c.289.848.526,1.763.8,2.679h.085c.22-.882.458-1.8.678-2.679l1.305-4.407h2.391l-3.374,9.781c-.831,2.238-1.848,3.527-3.967,3.527A4.009,4.009,0,0,1,103.434,143.276Z" fill="url(#linear-gradient-5)"/>
        <path id="Path_32" data-name="Path 32" d="M116.947,138.546l1.136-1.56a4.118,4.118,0,0,0,2.543,1.035c.949,0,1.373-.407,1.373-1,0-.713-.983-1.035-1.983-1.425-1.2-.457-2.543-1.186-2.543-2.78,0-1.695,1.373-2.9,3.543-2.9a5.265,5.265,0,0,1,3.221,1.17l-1.119,1.509a3.531,3.531,0,0,0-2.035-.814c-.864,0-1.271.373-1.271.915,0,.7.882.95,1.882,1.323,1.254.475,2.644,1.1,2.644,2.865,0,1.661-1.305,3-3.78,3A6.021,6.021,0,0,1,116.947,138.546Z" fill="url(#linear-gradient-6)"/>
      </g>
      <path id="Path_33" data-name="Path 33" d="M87.748,48.1c-.249-.024-.5-.054-.746-.072l.008.016c-.726-.046-1.457-.078-2.195-.078s-1.466.032-2.191.078l2.192-4.442H89.79l-3.372-6.838a1.785,1.785,0,0,0-3.2,0L77.264,48.822a34.117,34.117,0,0,0-25.5,41.708l3.44-6.98c-.03-.49-.04-.98-.04-1.48A29.692,29.692,0,0,1,74.586,54.25l-10.665,21.6L61.53,80.708,54.263,95.429l.049.024-.457.927A34.106,34.106,0,1,0,87.748,48.1ZM114.465,82.07a29.562,29.562,0,0,1-1.34,8.821L95.046,54.25A29.693,29.693,0,0,1,114.465,82.07Zm-29.65,29.65A29.658,29.658,0,0,1,58.822,96.276l3.5-7.1,5.327-.772,27.435-3.988-2.079-4.2-22.96,3.337-5.327.771,2.168-4.393,2.395-4.854,11.008-22.3a29.86,29.86,0,0,1,9.052,0L110.818,96.3A29.67,29.67,0,0,1,84.815,111.72Z" fill="url(#linear-gradient-7)"/>
    </g>
  </g>
</svg>
