<svg xmlns="http://www.w3.org/2000/svg" xmlns:xlink="http://www.w3.org/1999/xlink" width="79.388" height="22.649" viewBox="0 0 79.388 22.649">
  <defs>
    <linearGradient id="linear-gradient" y1="0.5" x2="4.676" y2="0.5" gradientUnits="objectBoundingBox">
      <stop offset="0" stop-color="#49c9ff"/>
      <stop offset="1" stop-color="#002d80"/>
    </linearGradient>
    <linearGradient id="linear-gradient-2" x1="-1.482" y1="0.5" x2="3.864" y2="0.5" xlink:href="#linear-gradient"/>
    <linearGradient id="linear-gradient-3" x1="-1.638" y1="0.5" x2="1.637" y2="0.5" xlink:href="#linear-gradient"/>
    <linearGradient id="linear-gradient-4" x1="-5.069" y1="0.5" x2="1" y2="0.5" xlink:href="#linear-gradient"/>
  </defs>
  <g id="Group_19" data-name="Group 19" transform="translate(-482.73 -724.432)">
    <path id="Path_23" data-name="Path 23" d="M482.73,724.432h4.53l6.449,11.849,2.22,4.8h.15c-.21-2.309-.57-5.249-.57-7.769v-8.88h4.2v22.229h-4.5l-6.419-11.88-2.25-4.769h-.15c.21,2.4.54,5.189.54,7.74v8.909h-4.2Z" fill="url(#linear-gradient)"/>
    <path id="Path_24" data-name="Path 24" d="M504.731,738.262c0-5.43,3.84-8.82,7.83-8.82,4.62,0,7.02,3.39,7.02,8.009a8.283,8.283,0,0,1-.21,2.04h-10.35a4.415,4.415,0,0,0,4.65,4.2,6.925,6.925,0,0,0,3.78-1.17l1.5,2.7a10.576,10.576,0,0,1-5.85,1.86C508.392,747.081,504.731,743.812,504.731,738.262Zm11.07-1.71c0-2.25-1.02-3.691-3.18-3.691-1.769,0-3.329,1.261-3.66,3.691Z" fill="url(#linear-gradient-2)"/>
    <path id="Path_25" data-name="Path 25" d="M522.435,729.861h4.409l1.83,8.281c.33,1.649.54,3.239.84,4.92h.12c.33-1.681.63-3.3,1.05-4.92l2.04-8.281h3.9l2.1,8.281c.39,1.649.69,3.239,1.05,4.92h.15c.3-1.681.54-3.271.84-4.92l1.83-8.281h4.079l-4.139,16.8h-5.19l-1.77-7.319c-.36-1.59-.63-3.12-.96-4.891h-.15c-.33,1.771-.57,3.33-.93,4.891l-1.71,7.319h-5.04Z" fill="url(#linear-gradient-3)"/>
    <path id="Path_26" data-name="Path 26" d="M549.038,744.711l2.01-2.76a7.294,7.294,0,0,0,4.5,1.83c1.68,0,2.43-.719,2.43-1.769,0-1.261-1.74-1.83-3.51-2.521-2.13-.809-4.5-2.1-4.5-4.92,0-3,2.43-5.129,6.27-5.129a9.306,9.306,0,0,1,5.7,2.07l-1.979,2.67a6.254,6.254,0,0,0-3.6-1.44c-1.53,0-2.25.659-2.25,1.619,0,1.231,1.56,1.681,3.33,2.34,2.22.84,4.68,1.95,4.68,5.071,0,2.939-2.31,5.309-6.69,5.309A10.656,10.656,0,0,1,549.038,744.711Z" fill="url(#linear-gradient-4)"/>
  </g>
</svg>
