<svg id="Group_408" data-name="Group 408" xmlns="http://www.w3.org/2000/svg" width="30" height="30" viewBox="0 0 30 30">
  <circle id="Ellipse_12" data-name="Ellipse 12" cx="15" cy="15" r="15" fill="#2bb9fc"/>
  <g id="Group_127" data-name="Group 127" transform="translate(11.5 8.5)">
    <path id="線_21" data-name="線 21" d="M8,6.5a.5.5,0,0,1-.3-.1l-8-6A.5.5,0,0,1-.4-.3.5.5,0,0,1,.3-.4l8,6a.5.5,0,0,1-.3.9Z" transform="translate(0.5 0.5)" fill="#fff"/>
    <path id="線_22" data-name="線 22" d="M0,6.5a.5.5,0,0,1-.4-.2.5.5,0,0,1,.1-.7l8-6a.5.5,0,0,1,.7.1.5.5,0,0,1-.1.7l-8,6A.5.5,0,0,1,0,6.5Z" transform="translate(0.5 6.5)" fill="#fff"/>
  </g>
</svg>
