<svg xmlns="http://www.w3.org/2000/svg" xmlns:xlink="http://www.w3.org/1999/xlink" width="478.375" height="661.483" viewBox="0 0 478.375 661.483">
  <defs>
    <linearGradient id="linear-gradient" y1="0.5" x2="7.079" y2="0.5" gradientUnits="objectBoundingBox">
      <stop offset="0" stop-color="#49c9ff"/>
      <stop offset="1" stop-color="#2bb9fc"/>
    </linearGradient>
    <linearGradient id="linear-gradient-2" x1="-4.509" y1="0.5" x2="16.959" y2="0.5" xlink:href="#linear-gradient"/>
    <linearGradient id="linear-gradient-3" x1="-1.803" y1="0.5" x2="3.883" y2="0.5" xlink:href="#linear-gradient"/>
    <linearGradient id="linear-gradient-4" x1="-5.489" y1="0.5" x2="4.307" y2="0.5" xlink:href="#linear-gradient"/>
    <linearGradient id="linear-gradient-5" x1="-6.109" y1="0.5" x2="2.29" y2="0.5" xlink:href="#linear-gradient"/>
    <linearGradient id="linear-gradient-6" x1="-9.537" y1="0.5" x2="1" y2="0.5" xlink:href="#linear-gradient"/>
    <linearGradient id="linear-gradient-7" x1="0" y1="0.5" x2="1" y2="0.5" xlink:href="#linear-gradient"/>
  </defs>
  <g id="Group_32" data-name="Group 32" transform="translate(-767.406 -1184.814)">
    <g id="Group_31" data-name="Group 31">
      <path id="Path_38" data-name="Path 38" d="M792.085,1745.711H810.2l24.782,77.157H818.845l-5.414-19.784H788.44l-5.415,19.784H767.406Zm-.313,45.4H810.1l-2.291-8.434c-2.395-8.017-4.478-16.868-6.664-25.2h-.521c-1.978,8.434-4.269,17.181-6.561,25.2Z" fill="url(#linear-gradient)"/>
      <path id="Path_39" data-name="Path 39" d="M867.884,1806.52v-66.745H883.19v67.37c0,3.54,1.563,4.686,3.02,4.686a8.594,8.594,0,0,0,2.083-.209l1.874,11.35a20.433,20.433,0,0,1-7.913,1.354C871.633,1824.326,867.884,1817.349,867.884,1806.52Z" fill="url(#linear-gradient-2)"/>
      <path id="Path_40" data-name="Path 40" d="M919.09,1764.557H934.4l6.352,28.739c1.146,5.727,1.874,11.246,2.915,17.077h.417c1.146-5.831,2.187-11.454,3.645-17.077l7.08-28.739h13.537l7.288,28.739c1.353,5.727,2.4,11.246,3.644,17.077h.521c1.041-5.831,1.875-11.35,2.916-17.077l6.351-28.739h14.162l-14.37,58.311H970.84l-6.143-25.406c-1.25-5.52-2.187-10.831-3.332-16.973h-.521c-1.145,6.142-1.978,11.558-3.228,16.973l-5.934,25.406H934.187Z" fill="url(#linear-gradient-3)"/>
      <path id="Path_41" data-name="Path 41" d="M1035.455,1807.041c0-12.495,10.1-19.055,33.633-21.554-.313-5.728-2.812-10.1-10-10.1-5.415,0-10.621,2.4-16.035,5.519l-5.52-10.1c6.873-4.269,15.2-7.706,24.366-7.706,14.785,0,22.387,8.851,22.387,25.72v34.049H1071.8l-1.041-6.248h-.417c-5.1,4.374-10.933,7.706-17.6,7.706C1042.327,1824.326,1035.455,1816.932,1035.455,1807.041Zm33.633-.417v-11.766c-14.266,1.77-19.056,5.727-19.056,10.934,0,4.581,3.229,6.559,7.706,6.559C1062.111,1812.351,1065.339,1810.268,1069.088,1806.624Z" fill="url(#linear-gradient-4)"/>
      <path id="Path_42" data-name="Path 42" d="M1119.21,1845.151l2.811-11.767a15.666,15.666,0,0,0,4.061.73c5.936,0,9.268-3.749,10.934-8.852l1.041-3.435-22.7-57.27h15.411l9.267,27.073c1.77,5.207,3.228,10.83,4.894,16.452h.52c1.354-5.414,2.812-11.037,4.165-16.452l8.019-27.073h14.681l-20.721,60.081c-5.1,13.744-11.35,21.659-24.365,21.659A24.685,24.685,0,0,1,1119.21,1845.151Z" fill="url(#linear-gradient-5)"/>
      <path id="Path_43" data-name="Path 43" d="M1200.382,1816.1l6.976-9.579c5.206,4.061,10.2,6.352,15.62,6.352,5.831,0,8.434-2.5,8.434-6.144,0-4.373-6.04-6.351-12.183-8.746-7.393-2.811-15.619-7.289-15.619-17.077,0-10.412,8.434-17.806,21.762-17.806,8.435,0,14.994,3.54,19.784,7.185l-6.872,9.267c-4.165-3.019-8.226-5-12.5-5-5.31,0-7.81,2.291-7.81,5.623,0,4.269,5.415,5.831,11.558,8.121,7.7,2.916,16.244,6.769,16.244,17.6,0,10.2-8.017,18.431-23.22,18.431C1214.752,1824.326,1206.213,1820.889,1200.382,1816.1Z" fill="url(#linear-gradient-6)"/>
    </g>
    <path id="Path_44" data-name="Path 44" d="M1025.713,1260.571c-1.528-.151-3.049-.331-4.583-.446l.05.1c-4.463-.285-8.95-.481-13.483-.481s-9,.195-13.458.479l13.465-27.281h30.552l-20.716-42.005a10.962,10.962,0,0,0-19.673,0l-36.549,74.043c-93.282,21.165-163.14,104.676-163.14,204.221a210.223,210.223,0,0,0,6.512,51.965l21.129-42.874c-.184-3.01-.245-6.02-.245-9.091,0-78.307,49.732-145.241,119.289-170.884l-65.505,132.706-14.687,29.812-44.636,90.423.3.147-2.8,5.694c33.291,71.743,106.018,121.62,190.169,121.62,115.537,0,209.516-93.979,209.516-209.518C1217.213,1359.8,1132.839,1269.743,1025.713,1260.571ZM1189.819,1469.2a181.54,181.54,0,0,1-8.229,54.182l-111.052-225.063C1140.09,1323.966,1189.819,1390.9,1189.819,1469.2ZM1007.7,1651.324c-68.783,0-128.672-38.417-159.661-94.861l21.512-43.592,32.721-4.742,168.516-24.5-12.769-25.811-141.032,20.5-32.722,4.737,13.317-26.987,14.714-29.812,67.616-137a183.321,183.321,0,0,1,55.6,0l131.912,267.352A182.252,182.252,0,0,1,1007.7,1651.324Z" fill="url(#linear-gradient-7)"/>
  </g>
</svg>
